<?xml version="1.0" encoding="UTF-8"?>
<svg xmlns="http://www.w3.org/2000/svg" version="1.1" viewBox="0 0 300.15 82.68">
  <defs>
    <style>
      .cls-1 {
        fill: #004937;
      }

      .cls-2 {
        font-family: MuktaVaani-SemiBold, 'Mukta Vaani';
        font-size: 32.73px;
        font-weight: 600;
      }

      .cls-2, .cls-3, .cls-4 {
        fill: #fff;
      }

      .cls-5 {
        letter-spacing: .13em;
      }

      .cls-6 {
        fill: #f7931e;
      }

      .cls-4 {
        font-family: HiraKakuStd-W8-83pv-RKSJ-H, 'Hiragino Kaku Gothic Std';
        font-size: 12.98px;
        letter-spacing: .07em;
      }

      .cls-7 {
        letter-spacing: .06em;
      }
    </style>
  </defs>
  <!-- Generator: Adobe Illustrator 28.7.1, SVG Export Plug-In . SVG Version: 1.2.0 Build 142)  -->
  <g>
    <g id="_レイヤー_1" data-name="レイヤー_1">
      <g>
        <g>
          <rect class="cls-1" width="300.15" height="82.68"/>
          <text class="cls-2" transform="translate(92.04 51.24) scale(1.14 1)"><tspan class="cls-7" x="0" y="0">VEGENUTS</tspan><tspan class="cls-5" x="167" y="0"> </tspan></text>
          <path class="cls-6" d="M47.95,70.68c-8.52,0-16.1-4.12-21.7-9.72s-9.82-13.18-9.82-21.7,3.64-16.69,9.23-22.28,13.76-8.08,22.28-8.08,15.88,3.29,21.48,8.88,10.04,12.96,10.04,21.48-4.23,16.1-9.82,21.7-13.18,9.72-21.7,9.72ZM47.95,11.49c-7.8,0-15.02,2.52-20.14,7.64s-7.54,12.34-7.54,20.14,3,14.43,8.12,19.55c5.12,5.12,11.76,9.27,19.55,9.27s15.23-3.35,20.35-8.47,7.32-12.56,7.32-20.35-2.41-15.02-7.53-20.14-12.34-7.64-20.14-7.64Z"/>
          <path class="cls-3" d="M51.02,51.56h-5.46l.06-.86c.17-2.43-.6-4.35-1.14-5.38-.31.06-.63.08-.95.08-3.02,0-5.47-2.46-5.47-5.47,0-2.04,1.12-3.89,2.9-4.83.53-2.62,2.85-4.54,5.57-4.54,1.2,0,2.37.38,3.34,1.08.5-.16,1.03-.25,1.56-.25,2.79,0,5.06,2.27,5.06,5.06,0,.07,0,.13,0,.2,1.37.85,2.23,2.37,2.23,4,0,2.6-2.11,4.71-4.71,4.71-.42,0-.83-.05-1.23-.16-1.12,3.38-.94,5.46-.94,5.48l.08.88h-.89ZM47.26,49.95h2.94c.04-1.12.27-3.25,1.31-6.08l.31-.84.8.4c.43.21.88.32,1.36.32,1.7,0,3.09-1.39,3.09-3.09,0-1.21-.71-2.31-1.81-2.81l-.56-.25.09-.6c.03-.17.04-.35.04-.53,0-1.9-1.54-3.44-3.44-3.44-.48,0-.94.1-1.38.29l-.47.21-.39-.34c-.74-.64-1.68-.99-2.66-.99-2.05,0-3.79,1.53-4.04,3.57l-.06.46-.43.18c-1.42.61-2.33,2-2.33,3.54,0,2.13,1.73,3.86,3.86,3.86.38,0,.76-.06,1.12-.17l.6-.18.33.53c.53.85,1.67,3.04,1.69,5.98Z"/>
          <path class="cls-6" d="M69.49,45.8c-.93,0-1.85-.31-2.58-.91-.79-.65-2.41-2.6-.54-6.52,1.29-3,1.11-4.42.73-5.07-.36-.62-1.17-1-2.41-1.14l-.1-.02c-4.98-1-5.59-6.31-5.21-9.13-.16-1.18-.66-1.96-1.47-2.31-1.23-.53-2.99-.09-3.98.65l-.16.1c-2.82,1.48-5.54,1.71-8.09.69-5.67-2.28-8.31-10.03-8.42-10.36l2.3-.77c.02.07,2.4,7.03,7.03,8.88,1.86.75,3.82.57,5.97-.55,1.57-1.13,4.21-1.79,6.31-.87,1.17.51,2.63,1.68,2.94,4.42l.02.16-.02.16c-.03.23-.8,5.7,3.22,6.55,2.02.24,3.42,1.02,4.18,2.32.99,1.69.79,4.01-.61,7.29-.81,1.7-.84,3.05-.11,3.65.55.46,1.45.47,2.06.03.73-.52.84-1.6.31-2.95-.24-.62-.52-1.44-.5-2.34.07-3.37.88-5.57,2.41-6.56,1.49-.96,2.97-.37,3.13-.3l-.96,2.23s-.47-.16-.88.12c-.36.25-1.21,1.18-1.28,4.56,0,.47.17.99.33,1.4.96,2.42.53,4.59-1.14,5.8-.73.52-1.59.79-2.45.79Z"/>
        </g>
        <text class="cls-4" transform="translate(141.88 66.18)"><tspan x="0" y="0">ベジナッツ</tspan></text>
      </g>
    </g>
  </g>
</svg>