<?xml version="1.0" encoding="UTF-8"?>
<svg id="_レイヤー_1" data-name="レイヤー_1" xmlns="http://www.w3.org/2000/svg" version="1.1" viewBox="0 0 300.1 82.7">
  <!-- Generator: Adobe Illustrator 29.2.1, SVG Export Plug-In . SVG Version: 2.1.0 Build 116)  -->
  <defs>
    <style>
      .st0 {
        fill: #004937;
      }

      .st1 {
        isolation: isolate;
      }

      .st2 {
        fill: #fff;
      }

      .st3 {
        fill: #f7931e;
      }
    </style>
  </defs>
  <g>
    <rect class="st0" width="300.1" height="82.7"/>
    <g class="st1">
      <g class="st1">
        <path class="st2" d="M97,30.6l4.2,10.9c.1.3.3.8.5,1.2.2.5.4,1,.5,1.5.2.5.4,1,.5,1.5.2.5.3,1,.4,1.4h.1c.1-.4.3-.8.4-1.3.2-.5.3-1,.5-1.5.2-.5.3-1,.5-1.4.2-.5.3-.9.5-1.3l4.4-11h4.7l-8.7,20.6h-4.8l-8.7-20.6h4.8Z"/>
        <path class="st2" d="M119.4,30.6h14.9v3.1h-10.4v5.2h9.4v3.1h-9.4v6h10.5v3.1h-15v-20.6Z"/>
        <path class="st2" d="M151.4,30.3c1.4,0,2.7,0,3.8.3,1.1.2,2.2.5,3.1.9l-1,2.8c-.9-.4-1.8-.6-2.7-.8-.9-.2-1.9-.2-2.8-.2s-2,.1-3,.4c-.9.3-1.8.7-2.5,1.4-.7.6-1.3,1.4-1.7,2.4-.4,1-.6,2.2-.6,3.6,0,2.5.6,4.4,1.9,5.7,1.3,1.3,3.1,2,5.4,2s2.6-.1,3.4-.4v-5.1h-4.1v-3h8.4v10.3c-1,.4-2.1.7-3.4.9-1.3.2-2.7.3-4.4.3s-3.3-.2-4.8-.7c-1.5-.5-2.8-1.1-3.9-2-1.1-.9-2-2-2.6-3.3-.6-1.3-.9-2.8-.9-4.6s.3-3.3.9-4.6c.6-1.3,1.5-2.4,2.6-3.4,1.1-.9,2.4-1.6,3.8-2,1.5-.5,3.1-.7,4.8-.7Z"/>
        <path class="st2" d="M166.1,30.6h14.9v3.1h-10.4v5.2h9.4v3.1h-9.4v6h10.5v3.1h-15v-20.6Z"/>
        <path class="st2" d="M187.5,30.6h4.1l9,11.6c.5.7,1,1.3,1.4,1.9.4.6.8,1.2,1,1.6h0c-.1-1.5-.2-3-.2-4.5v-10.6h4.3v20.6h-4.1l-8.5-11c-.6-.7-1.1-1.5-1.6-2.3-.5-.8-.9-1.5-1.2-2h0c.1,1.6.2,3.2.2,4.7,0,1.5,0,3.1,0,4.6v5.9h-4.3v-20.6Z"/>
        <path class="st2" d="M214.6,30.6h4.6v12.3c0,1.9.4,3.3,1.2,4.2.8.9,2.1,1.3,3.9,1.3s3-.5,3.8-1.4c.8-.9,1.2-2.2,1.2-3.7v-12.7h4.6v12.5c0,2.9-.8,5-2.5,6.4-1.6,1.4-4,2.1-7.1,2.1s-2.9-.2-4.1-.5c-1.2-.3-2.2-.9-3-1.6-.8-.7-1.5-1.6-1.9-2.7-.4-1.1-.7-2.4-.7-3.9v-12.3Z"/>
        <path class="st2" d="M257.2,30.6v3.2h-6.9v17.4h-4.6v-17.4h-6.7v-3.2h18.2Z"/>
        <path class="st2" d="M269.8,30.3c1.4,0,2.7.1,3.8.3,1.1.2,2.2.6,3.1,1l-1,3.1c-1-.4-2-.8-2.9-1-.9-.2-1.8-.3-2.7-.3-1.3,0-2.3.2-3,.7-.7.5-1.1,1.1-1.1,1.9s.3,1.3.9,1.8c.6.4,1.5.8,2.8,1.2l2.3.7c1.9.6,3.4,1.4,4.4,2.4,1,1,1.5,2.2,1.5,3.6s-.2,1.7-.6,2.5c-.4.7-1,1.4-1.7,1.9s-1.7,1-2.7,1.3-2.3.5-3.7.5-2.7-.1-3.9-.3c-1.3-.2-2.5-.6-3.7-1.1l1-3c1.1.5,2.1.8,3.1,1s2.1.4,3.2.4,2.4-.2,3.2-.7,1.1-1.1,1.1-2,0-.6-.2-.9-.3-.6-.7-.8c-.3-.2-.7-.5-1.3-.7-.5-.2-1.2-.5-2.1-.7l-2.1-.6c-1.7-.5-3.1-1.2-4.1-2.1-1-.9-1.5-2.1-1.5-3.6s.7-3.3,2.2-4.4c1.4-1.1,3.5-1.7,6.3-1.7Z"/>
      </g>
    </g>
    <path class="st3" d="M48,70.7c-8.5,0-16.1-4.1-21.7-9.7s-9.8-13.2-9.8-21.7,3.6-16.7,9.2-22.3,13.8-8.1,22.3-8.1,15.9,3.3,21.5,8.9c5.6,5.6,10,13,10,21.5s-4.2,16.1-9.8,21.7-13.2,9.7-21.7,9.7h0ZM48,11.5c-7.8,0-15,2.5-20.1,7.6s-7.5,12.3-7.5,20.1,3,14.4,8.1,19.5,11.8,9.3,19.5,9.3,15.2-3.3,20.4-8.5,7.3-12.6,7.3-20.3-2.4-15-7.5-20.1-12.3-7.6-20.1-7.6h0Z"/>
    <path class="st2" d="M51,51.6h-5.5v-.9c.2-2.4-.5-4.3-1.1-5.4-.3,0-.6,0-1,0-3,0-5.5-2.5-5.5-5.5s1.1-3.9,2.9-4.8c.5-2.6,2.8-4.5,5.6-4.5s2.4.4,3.3,1.1c.5-.2,1-.2,1.6-.2,2.8,0,5.1,2.3,5.1,5.1v.2c1.4.8,2.2,2.4,2.2,4,0,2.6-2.1,4.7-4.7,4.7s-.8,0-1.2-.2c-1.1,3.4-.9,5.5-.9,5.5v.9c0,0-.8,0-.8,0h0ZM47.3,50h2.9c0-1.1.3-3.2,1.3-6.1l.3-.8.8.4c.4.2.9.3,1.4.3,1.7,0,3.1-1.4,3.1-3.1s-.7-2.3-1.8-2.8l-.6-.2v-.6c.1-.2.1-.3.1-.5,0-1.9-1.5-3.4-3.4-3.4s-.9,0-1.4.3l-.5.2-.4-.3c-.7-.6-1.7-1-2.7-1-2,0-3.8,1.5-4,3.6v.5c0,0-.5.2-.5.2-1.4.6-2.3,2-2.3,3.5s1.7,3.9,3.9,3.9.8,0,1.1-.2l.6-.2.3.5c.5.8,1.7,3,1.7,6h0Z"/>
    <path class="st3" d="M69.5,45.8c-.9,0-1.8-.3-2.6-.9-.8-.7-2.4-2.6-.5-6.5,1.3-3,1.1-4.4.7-5.1-.4-.6-1.2-1-2.4-1.1h0c-5-1-5.6-6.3-5.2-9.2-.2-1.2-.7-2-1.5-2.3-1.2-.5-3,0-4,.6h-.2c-2.8,1.6-5.5,1.8-8.1.8-5.7-2.3-8.3-10-8.4-10.4l2.3-.8c0,0,2.4,7,7,8.9,1.9.8,3.8.6,6-.5,1.6-1.1,4.2-1.8,6.3-.9,1.2.5,2.6,1.7,2.9,4.4v.2s0,.2,0,.2c0,.2-.8,5.7,3.2,6.5,2,.2,3.4,1,4.2,2.3,1,1.7.8,4-.6,7.3-.8,1.7-.8,3-.1,3.7.6.5,1.4.5,2.1,0,.7-.5.8-1.6.3-3-.2-.6-.5-1.4-.5-2.3,0-3.4.9-5.6,2.4-6.6,1.5-1,3-.4,3.1-.3l-1,2.2s-.5-.2-.9.1c-.4.2-1.2,1.2-1.3,4.6,0,.5.2,1,.3,1.4,1,2.4.5,4.6-1.1,5.8-.7.5-1.6.8-2.4.8h0Z"/>
  </g>
  <g class="st1">
    <g class="st1">
      <path class="st2" d="M142.1,61.8c.4-.3,1.3-1.2,2.9-3.3.5-.6.8-.9,1.1-1.1.3-.2.6-.2,1-.2.8,0,1.1.2,2.2,1.5,1.7,1.9,2.5,2.7,4,4.1.7.7,1,.9,1.4,1.2l-1.2,2.5c-1.9-1.8-3.1-3-5.9-6.2-.2-.2-.3-.3-.5-.3s-.2,0-.7.7c-.7,1-1.4,1.8-2.3,2.9-.1.2-.3.3-.5.6l-1.5-2.2ZM151.4,57c.5.6.9,1.2,1.3,1.9l-1.2.6c-.4-.8-.8-1.3-1.3-1.9l1.2-.6ZM153.1,56.2c.5.5.8,1,1.3,1.8l-1.2.6c-.5-.8-.8-1.3-1.3-1.9l1.2-.5Z"/>
      <path class="st2" d="M157.5,58.8c1.4.5,2.6,1.2,3.6,1.8l-1.1,2c-.9-.7-2.4-1.5-3.7-2l1.2-1.9ZM156.7,64.5c1.1,0,2.8-.4,4-.8,2.4-1,4.1-2.9,5.1-5.7.6.7,1.2,1.2,1.9,1.6-1.6,4.1-4.6,6.3-9.4,7.1-.5,0-.7.1-.9.2l-.6-2.5ZM158.5,55.7c1.4.5,2.8,1.2,3.7,1.7l-1.2,2c-1.2-.8-2.6-1.5-3.7-1.9l1.2-1.8ZM165.2,55.5c.5.6.8,1.3,1.1,2.1l-1.3.5c-.4-.9-.7-1.5-1.1-2.1l1.3-.4ZM167,54.9c.4.5.8,1.2,1.2,2l-1.2.5c-.4-.9-.7-1.5-1.1-2l1.2-.4Z"/>
      <path class="st2" d="M179.1,58.4c1,0,1.4,0,1.9-.1v2.3c-.6,0-.9,0-1.9,0h-2.3c-.1,1.7-.4,2.6-.9,3.5-.5.9-1.2,1.6-2.1,2.3-.4.3-.7.5-1.3.8-.5-.8-.9-1.3-1.7-2,1.5-.6,2.5-1.4,3.1-2.4.3-.5.5-1,.5-1.6q0-.2,0-.6h-2.8c-.9,0-1.2,0-1.9,0v-2.3c.6,0,.8.1,1.9.1h2.9q0-.2,0-.5v-1c0-.5,0-1,0-1.4h2.5c0,.4,0,.4,0,1.4q0,.5,0,1c0,.2,0,.3,0,.5h2.2Z"/>
      <path class="st2" d="M185.2,58.4c.5,1,.9,2,1.3,3.3l-2,.6c-.3-1.4-.6-2.1-1.2-3.4l1.9-.5ZM192.7,58.6c0,.2,0,.3-.2.8-.4,1.8-.9,3.2-1.6,4.2-.7,1-1.6,1.9-2.7,2.6-.5.3-.8.5-1.6.9-.4-.8-.7-1.1-1.4-1.8,2.6-1,4-2.3,4.8-4.5.3-.9.6-2,.6-2.7l2.1.5ZM188,57.8c.7,1.3.9,1.9,1.3,3.2l-2,.6c-.2-1.1-.6-2.1-1.2-3.3l1.9-.5Z"/>
      <path class="st2" d="M197.1,56.5c.7,1.3,1,2.2,1.6,4l-2.2.7c-.4-1.6-.9-3-1.5-4.1l2.1-.6ZM206.4,56.8c-.1.3-.2.5-.3,1.2-.5,2.2-1.2,4-2.4,5.5-1.1,1.5-2.6,2.6-4.7,3.6-.5-.9-.8-1.3-1.6-2.1,1.6-.6,2.7-1.2,3.8-2.2,1.4-1.3,2.2-2.8,2.6-5.1.1-.6.2-.9.2-1.5l2.5.6ZM200.6,55.9c.6,1.1,1.1,2.2,1.5,3.9l-2.2.7c-.4-1.5-.8-2.6-1.4-4l2.1-.6Z"/>
    </g>
  </g>
</svg>