<?xml version="1.0" encoding="UTF-8"?>
<svg xmlns="http://www.w3.org/2000/svg" version="1.1" viewBox="0 0 390.2 87.8">
  <defs>
    <style>
      .cls-1 {
        isolation: isolate;
      }

      .cls-2 {
        fill: #457448;
      }

      .cls-3 {
        fill: #f1ab3f;
      }
    </style>
  </defs>
  <!-- Generator: Adobe Illustrator 28.7.1, SVG Export Plug-In . SVG Version: 1.2.0 Build 142)  -->
  <g>
    <g id="_レイヤー_1" data-name="レイヤー_1">
      <g id="_レイヤー_1-2" data-name="_レイヤー_1">
        <ellipse class="cls-3" cx="33.2" cy="54.5" rx="26.6" ry="24.4"/>
        <path class="cls-2" d="M56.5,10.7H9.8c-1,0-1.8-.8-1.8-1.8s.8-1.8,1.8-1.8h46.7c1,0,1.8.8,1.8,1.8s-.8,1.8-1.8,1.8Z"/>
        <path class="cls-2" d="M34.4,86.6h0c-11.3,0-20.1-3.4-26.1-10.1C.5,67.9-.2,56.2,0,53.4,0,44.2,2.9,36.9,8.4,31.6c8.1-7.8,19.7-8.8,24.2-8.9V1.8C32.7.8,33.4,0,34.4,0s1.8.8,1.8,1.8v24.5h-1.8c-.2,0-14.5-.7-23.5,7.9-4.8,4.6-7.3,11.1-7.3,19.3v.2c-.2,2.2.4,12.9,7.3,20.5,5.3,5.9,13.3,8.9,23.6,9,1,0,1.8.8,1.7,1.8,0,1-.8,1.7-1.8,1.7h0Z"/>
        <path class="cls-2" d="M42.1,85.5c-.8,0-1.5-.5-1.7-1.3-.2-.9.3-1.9,1.3-2.1,14.9-3.8,22.3-13.2,22-28,0-.5,0-.9,0-1.2-1.2-23.9-21.6-25.7-22.5-25.7-1,0-1.7-.9-1.6-1.9,0-1,.9-1.7,1.9-1.6.2,0,24.4,2.1,25.8,29.2v.3c0,.2,0,.5,0,.9.4,20.8-13.2,28.6-24.6,31.5-.1,0-.3,0-.4,0h0Z"/>
        <g>
          <ellipse class="cls-2" cx="46.8" cy="17.1" rx="5.5" ry="2.7"/>
          <path class="cls-2" d="M46.8,21.5c-4.2,0-7.3-1.9-7.3-4.4s3.1-4.4,7.3-4.4,7.3,1.9,7.3,4.4-3.1,4.4-7.3,4.4ZM43.1,17.1c.4.4,1.7.9,3.7.9s3.2-.6,3.7-.9c-.4-.4-1.7-.9-3.7-.9s-3.2.6-3.7.9ZM50.6,17.3h0Z"/>
        </g>
        <path class="cls-2" d="M11,55c-.6,0-1.1-.3-1.4-.8-2.1-3.1-1.4-10.5-1.3-12,.1-1,1-1.7,1.9-1.6,1,0,1.7,1,1.6,1.9-.3,3.1-.3,8.1.7,9.6.5.8.3,1.9-.5,2.4-.3.2-.6.3-1,.3h0Z"/>
        <path class="cls-2" d="M17.5,70.5c-2.4,0-4-.9-5.1-1.7-2.4-2-3.2-5.2-3.4-6.3h0c-1.8-9.6,3.7-12.1,3.9-12.2.9-.4,1.9,0,2.3.9.4.9,0,1.9-.9,2.3-.2,0-3.2,1.7-1.9,8.4v.2c.1.4.6,2.9,2.4,4.2,1.1.8,2.4,1,4.1.6,1-.2,1.9.4,2.1,1.4.2.9-.4,1.9-1.4,2.1-.8.2-1.5.2-2.2.2h0Z"/>
        <path class="cls-2" d="M388.5,85.5H43c-1,0-1.8-.8-1.8-1.8s.8-1.8,1.8-1.8h345.5c1,0,1.8.8,1.8,1.8s-.8,1.8-1.8,1.8Z"/>
        <path class="cls-2" d="M358.8,77.5l-1.5-2.1c-.2-.3-.1-.6,0-.8l.5-.5c.2-.2.3-.6,0-.9l-2-2.6c-.2-.3-.2-.7,0-.9l.2-.2c.3-.2.3-.6,0-.9l-3.4-4.1c-.1-.2-.3-.2-.5-.2s-.4,0-.5.2l-3.4,4.1c-.2.3-.2.7,0,.9l.2.2c.3.2.3.6,0,.9l-2,2.6c-.2.3-.2.6,0,.9l.5.5c.2.2.3.6,0,.8l-1.5,2.1c-.1.2-.1.4,0,.6s.2.4.5.4l4.1,1.1v3.6c0,.4.3.7.7.7h2.1c.4,0,.7-.3.7-.7v-3.6l4.1-1.1c.2,0,.4-.2.5-.4,0-.2,0-.4,0-.6h0Z"/>
        <path class="cls-2" d="M379.3,75.8l-2.1-3.1c-.3-.4-.2-.9.1-1.2l.8-.8c.4-.3.4-.9,0-1.3l-2.8-3.7c-.3-.4-.2-1,.1-1.3l.3-.3c.4-.3.4-.9.1-1.3l-4.9-6c-.2-.2-.5-.3-.8-.3s-.6.1-.8.3l-4.9,6c-.3.4-.3,1,.1,1.3l.3.3c.4.3.4.9.1,1.3l-2.8,3.7c-.3.4-.3.9,0,1.3l.8.8c.3.3.4.8.1,1.2l-2.1,3.1c-.2.3-.2.6-.1.9.1.3.4.5.6.6l6,1.7v5.3c0,.5.4,1,1,1h3.1c.5,0,1-.4,1-1v-5.3l6-1.7c.3,0,.5-.3.6-.6.1-.3,0-.6-.1-.9h0Z"/>
        <g class="cls-1">
          <g class="cls-1">
            <path class="cls-2" d="M87,42c0-2.9.3-6.1.6-9.2-1.5,2.7-3.1,5.2-4.9,7.4-.6.7-1.3,1-1.9,1s-1.1-.2-1.6-.6c-.6-.4-.9-1.3-.9-2s.2-1.1.6-1.5c5.5-6.5,10.5-15.1,13.1-24.9.3-1.1,1.1-1.6,2.2-1.6s.6,0,1,.1c1.1.3,1.8,1,1.8,2s0,.5-.1.8c-1.3,4.3-3,8.4-4.9,12.3v41.6c0,1.2-1,1.9-2.5,1.9s-2.5-.7-2.5-1.9v-25.4ZM107.1,44.7c-2.6,5-5.5,9.4-8.6,12.9-.6.6-1.3,1-2.1,1s-1.1-.2-1.7-.6c-.5-.5-.8-1.1-.8-1.8s.3-1.3.8-1.9c4.1-4.4,8.3-10.8,11.2-17.9,1-2.5,2-5.4,2.9-8.5h-11.2c-1.1,0-1.8-1-1.8-2.4s.6-2.2,1.8-2.2h12.4c.8-3.6,1.5-7.2,2-10.7.2-1.4,1.1-2,2.2-2s.4,0,.6,0c1.4.1,2.3.9,2.3,2.1s0,.3,0,.4c-.5,3.3-1.3,6.7-2.1,10.1h21.9c1.1,0,1.8.9,1.8,2.2s-.6,2.4-1.8,2.4h-23.1c-1,3.6-2.2,7-3.4,10.1-.3.8-.6,1.5-1,2.2h24.4c1.1,0,1.8,1,1.8,2.3s-.6,2.3-1.8,2.3h-11.5v17.8h15c1.1,0,1.8.9,1.8,2.2s-.6,2.4-1.8,2.4h-36.1c-1.1,0-1.8-1-1.8-2.4s.6-2.2,1.8-2.2h16.2v-17.8h-10.1Z"/>
            <path class="cls-2" d="M150.5,52.2c-.6,6.6-1.8,11-3.5,15.3-.4,1-1.1,1.6-2,1.6s-.6,0-1-.1c-1.1-.4-1.7-1.1-1.7-2s0-.6.3-1c3.1-7.1,4.1-14.2,4.1-32.9v-3.8c0-3.1,1.7-4.6,5-4.6h6.6c3.4,0,4.9,1.3,4.9,4.6v34.7c0,3.8-2,5-5.5,5s-3.5-.2-4.4-.4c-1.1-.3-1.7-1.1-1.7-2.1s0-.4,0-.6c.2-1.1,1-1.7,1.9-1.7s.3,0,.4,0c.8.2,1.7.4,2.7.4,1.8,0,2.2-.3,2.2-1.9v-10.6h-8.4ZM165.2,21.5c0,1.3-.7,1.8-2.3,1.8s-2.3-.6-2.3-1.8v-2.3h-15.2c-1.1,0-1.7-.8-1.7-2s.6-2.1,1.7-2.1h15.2v-2.8c0-1.3.9-1.8,2.3-1.8s2.3.6,2.3,1.8v2.8h14.9v-2.8c0-1.3.9-1.8,2.3-1.8s2.3.6,2.3,1.8v2.8h15.6c1.1,0,1.7.8,1.7,2.1s-.6,2-1.7,2h-15.6v1c0,1.2-.8,1.8-2.3,1.8s-2.3-.6-2.3-1.8v-1h-14.9v2.3ZM151.1,40.5c0,2.2-.1,4.3-.2,6.4,0,.4,0,1,0,1.4h8.2v-7.8h-7.9ZM159,30.2c0-1.1-.6-1.4-1.7-1.4h-4.5c-1.1,0-1.7.3-1.7,1.4v6.4h7.8v-6.4ZM175,39c1-1.6,1.8-3.2,2.5-4.9h-9.5c-1,0-1.5-.8-1.5-1.9s.5-1.8,1.5-1.8h4.2c-.8-1.7-1.6-3.2-2.4-4.4-.3-.4-.4-.8-.4-1.1,0-.6.4-1.1,1.2-1.5.3-.1.6-.2,1-.2.7,0,1.3.4,1.8,1.1,1,1.4,2.1,3.8,2.9,6.1h2.4c.6-1.9,1-3.9,1.3-6.1.1-1,1-1.6,2.1-1.6h.3c1.1.1,2,.8,2,1.8s0,.3,0,.4c-.3,1.8-.8,3.6-1.4,5.4h5.2c1.5-2.1,2.9-4.5,3.5-6,.4-1,1.1-1.3,1.9-1.3s.6,0,1,.2c.8.3,1.3.8,1.3,1.6s0,.6-.3,1c-.8,1.4-1.8,3-3,4.5h6.8c1,0,1.6.8,1.6,1.8s-.6,1.9-1.6,1.9h-10.8c.8,1.7,1.7,3.3,2.7,4.9h9.9c1.1,0,1.7.8,1.7,1.8s-.6,2-1.7,2h-7.3c2.3,2.4,5.1,4.5,8,6.1.8.4,1.2,1.1,1.2,1.8s-.1.8-.4,1.2c-.4.8-1,1.1-1.7,1.1s-.8-.1-1.1-.3c-4.2-2.6-8.1-6.2-11-9.9h-11.5c-2.6,3.7-6.2,7.3-9.6,9.6-.6.4-1.1.5-1.5.5-.6,0-1.2-.3-1.6-.9-.3-.3-.4-.7-.4-1.1,0-.6.3-1.3,1-1.8,2.7-1.7,5.2-4,7.3-6.3h-6c-1,0-1.6-.8-1.6-2s.6-1.8,1.6-1.8h8.5ZM177.2,56.9c.6,0,1.1.3,1.5.8.3.4.4.8.4,1.2,0,.6-.4,1.2-1.1,1.7-2.6,1.8-6.3,3.8-9.6,5-.3.1-.7.2-1,.2-.8,0-1.4-.4-1.8-1.3-.1-.3-.2-.6-.2-.9,0-.8.5-1.6,1.5-1.8,3-1,6.6-2.7,9.1-4.5.4-.3.8-.4,1.2-.4ZM178,52.8c.2.3.3.7.3,1.1,0,.6-.3,1.1-.8,1.5-.4.3-.9.4-1.3.4s-1.1-.2-1.4-.6c-.8-1-1.5-2-2.5-2.9s-.8-1-.8-1.4.3-1,.7-1.3c.4-.4.9-.6,1.4-.6s.8.1,1.3.5c1.2.9,2.2,2.2,3,3.3ZM184.9,64c0,3.8-1.9,5.3-5.6,5.3s-3.2,0-4.5-.4c-.8-.2-1.3-.9-1.3-1.9s0-.4,0-.6c.3-1,1-1.5,1.7-1.5s.3,0,.4,0c.9.2,2,.3,3,.3,1.5,0,2-.4,2-2v-16.3c0-1.1.8-1.7,2.2-1.7s2.1.6,2.1,1.7v17.2ZM186.6,39c-.9-1.6-1.7-3.3-2.4-4.9h-2.7c-.6,1.7-1.4,3.3-2.2,4.9h7.3ZM198.8,62.8c.8.4,1.1,1.1,1.1,1.8s0,.8-.3,1.1c-.4.8-1.1,1.2-1.8,1.2s-.8-.1-1.2-.3c-3.3-1.7-6.6-3.9-9.1-6.1-.6-.5-.8-1-.8-1.5s.2-.9.6-1.3c.3-.4,1-.6,1.5-.6s1,.1,1.3.4c2.6,2.1,5.8,4,8.7,5.4ZM194.4,50.6c0,.4-.1.8-.4,1.1-.9,1.5-2,2.6-3.3,3.6-.5.5-1,.7-1.5.7s-.9-.2-1.4-.6c-.4-.4-.7-.9-.7-1.4s.2-1,.7-1.4c1.2-1.1,2-2,2.9-3.3.3-.5,1-.8,1.6-.8s.8.1,1.2.4c.6.4.9,1,.9,1.6Z"/>
            <path class="cls-2" d="M215.5,67.5c-3.8,0-5.9-1.8-5.9-5.7V18.3c0-3.9,2-5.7,5.9-5.7h47.3c1.2,0,1.8.8,1.8,2.2s-.6,2.3-1.8,2.3h-46.1c-1.3,0-2,.5-2,1.9v42c0,1.5.7,1.9,2,1.9h47.2c1.1,0,1.8.9,1.8,2.3s-.6,2.4-1.8,2.4h-48.4ZM243.3,42.2c3.5,6.8,9.4,11,18,12.5,1,.2,1.7,1.1,1.7,2.3s0,.4,0,.6c-.3,1.2-1.3,1.9-2.4,1.9s-.3,0-.4,0c-9.6-1.8-16.3-6.8-20.3-14.9-2.7,6.9-8,11.7-17.7,14.9-.3,0-.6.1-1,.1-1,0-1.8-.6-2.2-1.7-.1-.4-.2-.7-.2-1,0-.9.5-1.7,1.6-1.9,9.2-2.9,13.6-6.6,15.6-12.8h-16.3c-1.1,0-1.7-.9-1.7-2.2s.6-2.2,1.7-2.2h17.3c.4-2.9.6-5.7.6-8.6h-9.2c-1.5,2.2-3.1,4.2-4.8,5.8-.5.4-1.1.7-1.7.7s-1.1-.2-1.7-.7c-.4-.5-.7-1-.7-1.6s.3-1.2.8-1.7c3.4-3.1,6.6-7.6,8.3-12.4.4-.9,1.1-1.3,2-1.3s.6,0,.9.1c1.1.3,1.8,1,1.8,1.9s0,.5-.2.8c-.6,1.3-1.3,2.7-2,4.1h27.3c1.1,0,1.7.8,1.7,2.1s-.6,2.2-1.7,2.2h-16c0,2.9-.2,5.7-.6,8.6h20.7c1.1,0,1.7.8,1.7,2.2s-.6,2.2-1.7,2.2h-19.1Z"/>
            <path class="cls-2" d="M272.5,17c0-3.6,1.8-5,5.2-5h9.8c2.8,0,4.5,1.7,4.5,4.1s-.1,1.4-.4,2.2c-1.5,4.7-3.8,9-6.1,12.6-.2.3-.3.6-.3,1s.1.8.4,1.1c4,4.5,6,9.4,6,14.1s-2.3,8.4-6.8,8.4-3.2-.2-4.1-.4c-1.1-.3-1.7-1.1-1.7-2.3s0-.3,0-.4c.1-1.2,1-2,2-2s.3,0,.4,0c.9.2,2,.3,3.1.3,1.8,0,2.3-1,2.3-4.3s-1.7-7.7-5.7-12.1c-.5-.6-.8-1.4-.8-2.3s.2-1.5.6-2.2c2.4-3.7,4.5-7.9,5.7-11.7,0-.3.1-.6.1-.8,0-.6-.4-.9-1.4-.9h-6.4c-1.2,0-1.8.3-1.8,1.6v49.7c0,1.3-.9,2-2.4,2s-2.4-.6-2.4-2V17ZM294.2,43c-1.1,0-1.8-.9-1.8-2.2s.6-2.2,1.8-2.2h33.2c1.1,0,1.7.9,1.7,2.2s-.6,2.2-1.7,2.2h-10.8v19c0,1.8.6,1.9,4.2,1.9s3.4-.4,3.9-1.3c.6-1.3.8-3.7.9-6.4,0-1.3.9-1.9,2.1-1.9h.4c1.3.1,2.1.9,2.1,2.2h0c-.1,3.6-.7,7-1.6,8.8-.8,1.5-2,2.4-3.8,2.7-1.1.2-3.1.3-5,.3s-2.6,0-3.4-.2c-3.3-.4-4.5-1.6-4.5-5v-20.2h-6.1c-.4,10.1-2.9,15.5-6.4,19.2-2.9,3-6.8,5.4-10.9,6.9-.4.2-.8.3-1.2.3-1,0-1.8-.5-2.2-1.7-.2-.4-.3-.8-.3-1.1,0-1,.6-1.7,1.7-2.1,3.5-1.2,6.8-3.1,9.3-5.6s4.9-7,5.2-15.9h-6.8ZM323.9,17c3.3,0,4.8,1.8,4.8,5.2v6.1c0,1.4-1,2-2.4,2s-2.4-.6-2.4-1.6v-5.7c0-1.3-.4-1.8-1.7-1.8h-24c-1.2,0-1.7.4-1.7,1.8v5.5c0,1.1-1,1.7-2.4,1.7s-2.3-.6-2.3-2v-6.1c0-3.4,1.5-5.2,4.8-5.2h10.2v-5.1c0-1.1,1-1.7,2.5-1.7s2.6.6,2.6,1.7v5.1h11.9ZM299.8,32.2c-1.2,0-1.8-1-1.8-2.2s.6-2.2,1.8-2.2h21c1.1,0,1.8,1,1.8,2.2s-.7,2.2-1.8,2.2h-21Z"/>
          </g>
        </g>
      </g>
    </g>
  </g>
</svg>