<?xml version="1.0" encoding="UTF-8"?>
<svg xmlns="http://www.w3.org/2000/svg" version="1.1" viewBox="0 0 390.23 87.75">
  <defs>
    <style>
      .cls-1, .cls-2 {
        fill: #457448;
      }

      .cls-3 {
        fill: #f1ab3f;
      }

      .cls-2 {
        font-family: HiraMaruPro-W4-83pv-RKSJ-H, 'Hiragino Maru Gothic Pro';
        font-size: 63.77px;
      }
    </style>
  </defs>
  <!-- Generator: Adobe Illustrator 28.7.1, SVG Export Plug-In . SVG Version: 1.2.0 Build 142)  -->
  <g>
    <g id="_レイヤー_1" data-name="レイヤー_1">
      <ellipse class="cls-3" cx="33.17" cy="54.54" rx="26.59" ry="24.41"/>
      <path class="cls-1" d="M56.55,10.69H9.8c-.97,0-1.75-.78-1.75-1.75s.78-1.75,1.75-1.75h46.75c.97,0,1.75.78,1.75,1.75s-.78,1.75-1.75,1.75Z"/>
      <path class="cls-1" d="M34.4,86.58h0c-11.33-.04-20.12-3.44-26.15-10.11C.49,67.89-.2,56.23.04,53.37c0-9.18,2.83-16.51,8.39-21.8,8.15-7.76,19.74-8.8,24.22-8.9V1.75c0-.97.78-1.75,1.75-1.75s1.75.78,1.75,1.75v24.51l-1.84-.09c-.15,0-14.51-.6-23.48,7.95-4.84,4.62-7.29,11.12-7.29,19.33v.17c-.22,2.23.39,12.87,7.3,20.51,5.34,5.9,13.27,8.92,23.57,8.96.97,0,1.75.79,1.74,1.76,0,.96-.79,1.74-1.75,1.74Z"/>
      <path class="cls-1" d="M42.09,85.5c-.78,0-1.49-.53-1.7-1.32-.24-.94.33-1.89,1.27-2.13,14.91-3.79,22.31-13.22,22-28.04-.01-.55-.02-.93,0-1.23-1.24-23.85-21.65-25.66-22.52-25.72-.96-.07-1.69-.91-1.62-1.87.07-.96.9-1.69,1.87-1.62.24.02,24.45,2.06,25.77,29.17v.17s-.02.17-.02.17c-.01.15,0,.45,0,.86.43,20.75-13.16,28.59-24.64,31.5-.14.04-.29.05-.43.05Z"/>
      <g>
        <ellipse class="cls-1" cx="46.8" cy="17.13" rx="5.53" ry="2.67"/>
        <path class="cls-1" d="M46.8,21.55c-4.22,0-7.28-1.86-7.28-4.42s3.06-4.42,7.28-4.42,7.28,1.86,7.28,4.42-3.06,4.42-7.28,4.42ZM43.14,17.13c.44.36,1.71.92,3.66.92s3.23-.56,3.66-.92c-.44-.36-1.71-.92-3.66-.92s-3.22.56-3.66.92ZM50.61,17.29h0,0Z"/>
      </g>
      <path class="cls-1" d="M10.98,54.96c-.56,0-1.11-.27-1.45-.76-2.1-3.07-1.43-10.5-1.28-11.96.1-.96.96-1.65,1.92-1.56.96.1,1.66.96,1.56,1.92-.33,3.1-.33,8.13.69,9.62.54.8.34,1.89-.46,2.43-.3.21-.64.3-.98.3Z"/>
      <path class="cls-1" d="M17.48,70.52c-2.38,0-4.03-.88-5.07-1.73-2.45-2-3.24-5.17-3.4-6.26h0c-1.82-9.61,3.7-12.13,3.94-12.23.89-.39,1.92.02,2.3.91.38.88-.01,1.89-.88,2.29-.19.1-3.18,1.74-1.92,8.38l.03.2c.08.44.59,2.9,2.37,4.17,1.07.76,2.41.96,4.11.61.95-.2,1.87.42,2.06,1.36.19.95-.42,1.87-1.36,2.06-.79.16-1.51.23-2.18.23Z"/>
      <path class="cls-1" d="M388.48,85.5H43.03c-.97,0-1.75-.78-1.75-1.75s.78-1.75,1.75-1.75h345.45c.97,0,1.75.78,1.75,1.75s-.78,1.75-1.75,1.75Z"/>
      <path class="cls-1" d="M358.8,77.48l-1.48-2.13c-.18-.26-.15-.62.08-.85l.53-.52c.24-.23.26-.61.06-.87l-1.95-2.55c-.21-.28-.17-.67.09-.9l.21-.18c.27-.24.3-.64.08-.92l-3.36-4.1c-.13-.15-.31-.24-.51-.24s-.39.09-.51.24l-3.36,4.1c-.23.28-.19.68.08.92l.21.18c.26.23.3.62.09.9l-1.95,2.55c-.2.26-.18.64.06.87l.53.52c.23.23.26.58.08.85l-1.48,2.13c-.12.18-.15.4-.08.6.07.2.24.36.45.41l4.14,1.14v3.63c0,.37.3.66.66.66h2.14c.37,0,.66-.3.66-.66v-3.63l4.14-1.14c.21-.06.37-.21.45-.41.07-.2.04-.43-.08-.6Z"/>
      <path class="cls-1" d="M379.28,75.85l-2.15-3.1c-.27-.39-.22-.91.11-1.24l.77-.76c.35-.34.38-.89.09-1.27l-2.84-3.72c-.31-.41-.25-.98.13-1.32l.31-.27c.39-.34.44-.94.11-1.34l-4.9-5.98c-.18-.22-.46-.35-.75-.35s-.56.13-.75.35l-4.9,5.98c-.33.4-.28,1,.11,1.34l.31.27c.38.34.44.91.13,1.32l-2.84,3.72c-.3.39-.26.93.09,1.27l.77.76c.33.33.38.85.11,1.24l-2.15,3.1c-.18.26-.22.59-.12.88.11.3.35.52.65.6l6.05,1.67v5.31c0,.53.43.97.97.97h3.13c.53,0,.97-.43.97-.97v-5.3l6.05-1.67c.3-.08.55-.31.65-.6.11-.29.06-.62-.12-.88Z"/>
      <text class="cls-2" transform="translate(77.21 64.22)"><tspan x="0" y="0">佐藤医院</tspan></text>
    </g>
  </g>
</svg>